<svg viewBox="0 0 1920 1080" xmlns="http://www.w3.org/2000/svg" fill-rule="evenodd" clip-rule="evenodd" stroke-linecap="round" stroke-linejoin="round" stroke-miterlimit="1.5"><path fill="#0e0928" stroke="#fff" stroke-width="2.74" d="M0 0h1920v1080H0z" transform="matrix(1.08021 0 0 1.11227 -27 -76.652)"/><path d="M1146.085 239.278c-.52 5.851-1.56 17.553-2.342 24.81-.676 6.258-1.611 14.387-2.358 18.734-.433 2.514-1.56 5.74-2.124 7.353M1103.312 246.8c-1.485 1.372-4.458 4.119-6.425 6.421-2.163 2.534-5.057 5.447-6.552 8.778-1.639 3.65-2.732 9.965-3.278 13.124" fill="none" stroke="#fff" stroke-width="2.9991811"/><path d="M1133.714 168.236c-3.376-1.594-10.13-4.783-13.505-5.101-2.475-.235-5.589.984-6.743 3.186-1.41 2.694-1.98 8.618-1.722 12.973.38 6.436 3.645 18.09 4.003 25.646.312 6.586-.532 13.432-1.854 19.69-1.3 6.153-4.309 14.108-6.078 17.861-.923 1.96-4.355 3.105-4.534 4.656-.18 1.55 2.406 3.027 3.46 4.644 1.76 2.7 5.51 7.705 7.103 11.551 1.502 3.629 2.946 9.343 2.452 11.524-.416 1.833-3.562 1.858-5.419 1.564-3.293-.522-10.35-4.445-14.338-4.697-3.362-.212-8.148.142-9.588 3.186-1.584 3.35-.542 11.306.088 16.907.958 8.518 4.01 25.833 5.66 34.2 1.067 5.414 2.869 13.196 4.239 16.005.595 1.22 2.983 1.765 3.982.846 1.614-1.484 3.68-6.941 5.701-9.75 1.864-2.59 4.05-4.967 6.423-7.101 2.748-2.47 7.228-5.917 10.064-7.716 2.14-1.358 5.202-1.29 6.951-3.078 1.75-1.788 2.601-5.004 3.542-7.652 1.494-4.202 4.889-12.99 5.423-17.565.391-3.356-.937-6.763-2.221-9.888-1.355-3.298-3.328-7.052-5.908-9.9-2.83-3.125-9.265-6.717-11.068-8.847-.848-1.002-.48-2.843.254-3.932 1.103-1.64 4.22-4.598 6.365-5.904 1.93-1.176 4.263-1.61 6.5-1.934 2.436-.352 6.278.572 8.118-.179 1.612-.658 2.19-2.749 2.924-4.328.927-1.994 2.266-4.97 2.639-7.637.524-3.754.514-11.172.509-14.881M713.82 606.036c5.626-.985 15.748-1.547 23.164-4.094 7.768-2.667 16.72-7.192 23.438-11.907 6.417-4.502 12.125-10.142 16.873-16.38 4.774-6.273 9.195-18.244 11.772-21.257 1.056-1.234 2.93 1.746 3.69 3.182 1.314 2.485 3.215 7.696 4.201 11.73 1.324 5.415 3.613 13.725 3.743 20.752.148 8.014-.525 18.468-2.852 27.325-2.485 9.46-6.48 21.43-12.061 29.436-5.409 7.758-13.92 14.695-21.428 18.597-7.127 3.705-16.508 4.61-23.611 4.818-6.443.19-14.136-2.132-19.006-3.561-3.638-1.069-8.773-3.59-10.21-5.015-.916-.907.423-2.973 1.587-3.527 1.732-.824 6.02-.376 8.806-1.415 1.987-.741 5.506-.77 8.709-2.025 4.942-1.938 9.853-5.381 12.817-7.872 4.251-3.572 6.506-11.164 7.781-14.729.748-2.092 1.115-5.328-.132-6.663-1.246-1.337-4.888-.956-7.346-1.353-3.526-.567-9.231-1.221-13.81-2.055-5.194-.947-12.886-1.639-17.357-3.625-4.784-2.126-9.561-6.817-9.355-8.544.205-1.728 7.06-1.2 10.588-1.818zM587.744 644.823c4.726 3.242 14.18 9.725 21.75 13.763 8.89 4.742 21.753 10.86 31.581 14.687 8.887 3.462 20.84 5.969 27.387 8.285 4.132 1.46 9.194 2.4 11.893 5.606s4.518 8.967 4.3 13.63c-.219 4.665-3.627 9.614-5.61 14.352-2.76 6.596-7.853 16.598-10.952 25.224-3.223 8.97-6.466 19.139-8.387 28.594-1.878 9.247-2.771 22.227-3.136 28.134-.15 2.453-.452 6.65.95 7.312 1.4.662 6.029-1.023 7.459-3.342 1.892-3.07 2.191-10.172 3.894-15.075 1.955-5.628 4.46-13.44 7.835-18.693 3.216-5.003 8.697-10.557 12.414-12.816 2.825-1.717 7.757-2.308 9.89-.741 2.133 1.566 3.363 6.653 2.908 10.138-.567 4.344-3.699 10.846-6.31 15.923-2.664 5.18-6.866 9.864-9.677 15.16-2.956 5.569-5.47 12.128-8.058 18.256-2.75 6.515-6.694 13.887-8.444 20.83-1.706 6.768-2.12 14.568-2.055 20.834.057 5.646 1.314 11.402 2.44 16.763 1.095 5.218 2.465 15.076 4.312 15.406 1.847.33 4.837-8.803 6.769-13.427 2.556-6.12 6.393-18.258 8.57-23.295 1.09-2.525 3.631-7.568 4.488-6.924.857.645 1.11 7.215.652 10.79-.807 6.283-4.391 17.826-5.494 26.916-1.268 10.45-2.538 23.855-2.115 35.803.427 12.07 3.248 30.209 4.68 36.641.316 1.424 3.168 3.193 3.91 1.946 1.01-1.704 1.364-8.129 2.147-12.165 1.714-8.853 4.957-29.518 8.136-40.92 2.65-9.503 8.29-21.797 10.94-27.492 1.17-2.516 3.539-6.64 4.964-6.683 1.425-.042 3.287 3.993 3.587 6.427.44 3.568-.139 10.043-.948 14.98-1.03 6.288-3.708 15.189-5.233 22.715-1.51 7.454-3.395 15.486-3.92 22.466-.486 6.464-.195 13.701.77 19.434.873 5.186 3.638 11.7 5.02 14.948" fill="none" stroke="#fff" stroke-width="2.9991811"/><path d="M587.744 644.779c19.415-2.188 44.342-9.963 62.815-20.326 18.474-10.364 33.151-26.702 48.03-41.855 16.809-17.12 30.603-42.006 35.357-60.006 4.757-18.012 11.912-38.696 18.193-52.845 5.074-11.429 12.538-21.66 19.495-32.05 7.344-10.97 16.823-22.197 24.566-33.761 9.847-14.707 24.374-39.053 34.515-54.48 4.531-6.895 8.21-15.597 13.459-21.406 5.908-6.538 11.415-7.802 16.915-11.526 8.56-5.796 23.045-4.721 33.126-8.068 9.452-3.138 18.895-6.761 27.36-12.011 9.724-6.03 22.204-14.457 30.991-24.175 9.656-10.68 18.746-26.108 26.946-39.906 9.96-16.762 25.437-44 32.817-60.664 5.528-12.484 8.036-29.09 11.461-39.325 2.526-7.547 5.584-16.486 9.089-22.077 2.932-4.678 7.022-9.516 11.942-11.475 4.921-1.96 12.042-1.22 17.585-.28 5.506.935 11.41 3.75 15.67 5.926 3.622 1.85 7.251 4.621 9.897 7.13 2.4 2.277 3.4 5.849 5.976 7.925 3.703 2.984 11.874 6.749 16.24 9.981 3.674 2.719 7.385 5.643 9.966 9.414 3.481 5.085 8.002 13.739 10.923 21.1 3.335 8.407 6.77 20.368 9.089 29.338 2.082 8.054 2.511 18.325 4.824 24.486.895 2.388 1.074 7.424 2.721 9.929 1.678 2.544 4.821 2.538 6.333 2.557 2.991.037 5.814-8.27 8.91-12.265 3.835-4.957 10.227-13.291 14.127-17.478 2.717-2.927 5.411-6.505 9.246-7.642 3.972-1.18 10.357-1.83 14.594.567 6.143 3.476 16.05 12.4 22.257 20.287 6.32 8.03 12.809 18.798 15.68 27.892 2.669 8.494 2.443 17.818 1.503 26.673-1.046 9.825-4.567 21.68-7.776 32.27-3.377 11.176-8.78 23.627-12.51 34.78-3.547 10.626-7.213 21.549-9.835 32.138-2.565 10.336-5.138 20.775-5.918 31.396-.908 12.363.016 28.53.467 42.785.466 14.96.249 31.444 2.372 46.98 2.315 16.92 6.81 37.459 11.498 54.543 4.479 16.316 10.59 32.451 16.62 47.958 5.942 15.27 13.396 31.355 19.579 45.085 5.637 12.525 12.439 24.538 17.529 37.297 5.636 14.11 12.591 34.126 16.25 47.368 2.903 10.47 5.025 21.244 5.74 32.084.78 11.773-.04 33.267-1.068 38.555-.314 1.603-2.927 2.072-4.174-.097-.924-1.608-.498-5.605-.94-6.733-1.93-4.934-2.734-15.819-6.465-22.77-3.78-7.045-13.87-19.515-16.234-19.495-2.356.021 1.126 13.376 2.082 19.62.917 6 1.48 12.172 3.65 17.84 3.466 9.043 11 24.488 17.144 36.415 6.979 13.542 18.38 28.993 24.709 44.84 6.93 17.352 13.773 42.487 16.877 59.268 2.517 13.589 2.726 34.173 1.769 41.417-.346 2.581-6.015 4.15-7.526 2.035-2.34-3.265-2.887-15.028-6.521-21.622-3.836-6.963-14.739-20.27-16.516-20.174-1.777.105 3.128 14.128 5.854 20.793 4.752 11.651 5.604 28.93 2.324 43.476" fill="none" stroke="#fff" stroke-width="2.9991811"/><path d="M879.65 411.26c-.767-4.751-2.279-18.629-1.04-27.194 1.223-8.46 4.267-17.925 8.47-24.204 3.985-5.955 10.153-10.182 16.747-13.477 2.634-1.315 8.09-5.013 10.406-7.38 3.802-3.888 5.97-7.652 8.153-9.693 1.365-1.276 3.46-3.716 4.59-3.221 1.129.495 2.29 4.005 2.184 6.19-.202 4.181-2.362 14.168-3.402 18.894-.707 3.216-.914 6.788-2.836 9.462-2.94 4.09-10.485 10.748-14.808 15.076-3.668 3.672-8.043 7.2-11.127 10.893-2.876 3.444-5.27 7.299-7.375 11.263-2.296 4.326-4.746 12.463-6.407 14.695-.754 1.013-3.355-.058-3.556-1.305z" fill="none" stroke="#fff" stroke-width="2.9991811"/><g><path d="M1146.085 239.278c-.52 5.851-1.56 17.553-2.342 24.81-.676 6.258-1.611 14.387-2.358 18.734-.433 2.514-1.56 5.74-2.124 7.353M1103.312 246.8c-1.485 1.372-4.458 4.119-6.425 6.421-2.163 2.534-5.057 5.447-6.552 8.778-1.639 3.65-2.732 9.965-3.278 13.124" fill="none" stroke="#4247ff" stroke-width="2.0825413"/><path d="M1133.714 168.236c-3.376-1.594-10.13-4.783-13.505-5.101-2.475-.235-5.589.984-6.743 3.186-1.41 2.694-1.98 8.618-1.722 12.973.38 6.436 3.645 18.09 4.003 25.646.312 6.586-.532 13.432-1.854 19.69-1.3 6.153-4.309 14.108-6.078 17.861-.923 1.96-4.355 3.105-4.534 4.656-.18 1.55 2.406 3.027 3.46 4.644 1.76 2.7 5.51 7.705 7.103 11.551 1.502 3.629 2.946 9.343 2.452 11.524-.416 1.833-3.562 1.858-5.419 1.564-3.293-.522-10.35-4.445-14.338-4.697-3.362-.212-8.148.142-9.588 3.186-1.584 3.35-.542 11.306.088 16.907.958 8.518 4.01 25.833 5.66 34.2 1.067 5.414 2.869 13.196 4.239 16.005.595 1.22 2.983 1.765 3.982.846 1.614-1.484 3.68-6.941 5.701-9.75 1.864-2.59 4.05-4.967 6.423-7.101 2.748-2.47 7.228-5.917 10.064-7.716 2.14-1.358 5.202-1.29 6.951-3.078 1.75-1.788 2.601-5.004 3.542-7.652 1.494-4.202 4.889-12.99 5.423-17.565.391-3.356-.937-6.763-2.221-9.888-1.355-3.298-3.328-7.052-5.908-9.9-2.83-3.125-9.265-6.717-11.068-8.847-.848-1.002-.48-2.843.254-3.932 1.103-1.64 4.22-4.598 6.365-5.904 1.93-1.176 4.263-1.61 6.5-1.934 2.436-.352 6.278.572 8.118-.179 1.612-.658 2.19-2.749 2.924-4.328.927-1.994 2.266-4.97 2.639-7.637.524-3.754.514-11.172.509-14.881M713.82 606.036c5.626-.985 15.748-1.547 23.164-4.094 7.768-2.667 16.72-7.192 23.438-11.907 6.417-4.502 12.125-10.142 16.873-16.38 4.774-6.273 9.195-18.244 11.772-21.257 1.056-1.234 2.93 1.746 3.69 3.182 1.314 2.485 3.215 7.696 4.201 11.73 1.324 5.415 3.613 13.725 3.743 20.752.148 8.014-.525 18.468-2.852 27.325-2.485 9.46-6.48 21.43-12.061 29.436-5.409 7.758-13.92 14.695-21.428 18.597-7.127 3.705-16.508 4.61-23.611 4.818-6.443.19-14.136-2.132-19.006-3.561-3.638-1.069-8.773-3.59-10.21-5.015-.916-.907.423-2.973 1.587-3.527 1.732-.824 6.02-.376 8.806-1.415 1.987-.741 5.506-.77 8.709-2.025 4.942-1.938 9.853-5.381 12.817-7.872 4.251-3.572 6.506-11.164 7.781-14.729.748-2.092 1.115-5.328-.132-6.663-1.246-1.337-4.888-.956-7.346-1.353-3.526-.567-9.231-1.221-13.81-2.055-5.194-.947-12.886-1.639-17.357-3.625-4.784-2.126-9.561-6.817-9.355-8.544.205-1.728 7.06-1.2 10.588-1.818zM587.744 644.823c4.726 3.242 14.18 9.725 21.75 13.763 8.89 4.742 21.753 10.86 31.581 14.687 8.887 3.462 20.84 5.969 27.387 8.285 4.132 1.46 9.194 2.4 11.893 5.606s4.518 8.967 4.3 13.63c-.219 4.665-3.627 9.614-5.61 14.352-2.76 6.596-7.853 16.598-10.952 25.224-3.223 8.97-6.466 19.139-8.387 28.594-1.878 9.247-2.771 22.227-3.136 28.134-.15 2.453-.452 6.65.95 7.312 1.4.662 6.029-1.023 7.459-3.342 1.892-3.07 2.191-10.172 3.894-15.075 1.955-5.628 4.46-13.44 7.835-18.693 3.216-5.003 8.697-10.557 12.414-12.816 2.825-1.717 7.757-2.308 9.89-.741 2.133 1.566 3.363 6.653 2.908 10.138-.567 4.344-3.699 10.846-6.31 15.923-2.664 5.18-6.866 9.864-9.677 15.16-2.956 5.569-5.47 12.128-8.058 18.256-2.75 6.515-6.694 13.887-8.444 20.83-1.706 6.768-2.12 14.568-2.055 20.834.057 5.646 1.314 11.402 2.44 16.763 1.095 5.218 2.465 15.076 4.312 15.406 1.847.33 4.837-8.803 6.769-13.427 2.556-6.12 6.393-18.258 8.57-23.295 1.09-2.525 3.631-7.568 4.488-6.924.857.645 1.11 7.215.652 10.79-.807 6.283-4.391 17.826-5.494 26.916-1.268 10.45-2.538 23.855-2.115 35.803.427 12.07 3.248 30.209 4.68 36.641.316 1.424 3.168 3.193 3.91 1.946 1.01-1.704 1.364-8.129 2.147-12.165 1.714-8.853 4.957-29.518 8.136-40.92 2.65-9.503 8.29-21.797 10.94-27.492 1.17-2.516 3.539-6.64 4.964-6.683 1.425-.042 3.287 3.993 3.587 6.427.44 3.568-.139 10.043-.948 14.98-1.03 6.288-3.708 15.189-5.233 22.715-1.51 7.454-3.395 15.486-3.92 22.466-.486 6.464-.195 13.701.77 19.434.873 5.186 3.638 11.7 5.02 14.948" fill="none" stroke="#4247ff" stroke-width="2.0825413"/><path d="M587.744 644.779c19.415-2.188 44.342-9.963 62.815-20.326 18.474-10.364 33.151-26.702 48.03-41.855 16.809-17.12 30.603-42.006 35.357-60.006 4.757-18.012 11.912-38.696 18.193-52.845 5.074-11.429 12.538-21.66 19.495-32.05 7.344-10.97 16.823-22.197 24.566-33.761 9.847-14.707 24.374-39.053 34.515-54.48 4.531-6.895 8.21-15.597 13.459-21.406 5.908-6.538 11.415-7.802 16.915-11.526 8.56-5.796 23.045-4.721 33.126-8.068 9.452-3.138 18.895-6.761 27.36-12.011 9.724-6.03 22.204-14.457 30.991-24.175 9.656-10.68 18.746-26.108 26.946-39.906 9.96-16.762 25.437-44 32.817-60.664 5.528-12.484 8.036-29.09 11.461-39.325 2.526-7.547 5.584-16.486 9.089-22.077 2.932-4.678 7.022-9.516 11.942-11.475 4.921-1.96 12.042-1.22 17.585-.28 5.506.935 11.41 3.75 15.67 5.926 3.622 1.85 7.251 4.621 9.897 7.13 2.4 2.277 3.4 5.849 5.976 7.925 3.703 2.984 11.874 6.749 16.24 9.981 3.674 2.719 7.385 5.643 9.966 9.414 3.481 5.085 8.002 13.739 10.923 21.1 3.335 8.407 6.77 20.368 9.089 29.338 2.082 8.054 2.511 18.325 4.824 24.486.895 2.388 1.074 7.424 2.721 9.929 1.678 2.544 4.821 2.538 6.333 2.557 2.991.037 5.814-8.27 8.91-12.265 3.835-4.957 10.227-13.291 14.127-17.478 2.717-2.927 5.411-6.505 9.246-7.642 3.972-1.18 10.357-1.83 14.594.567 6.143 3.476 16.05 12.4 22.257 20.287 6.32 8.03 12.809 18.798 15.68 27.892 2.669 8.494 2.443 17.818 1.503 26.673-1.046 9.825-4.567 21.68-7.776 32.27-3.377 11.176-8.78 23.627-12.51 34.78-3.547 10.626-7.213 21.549-9.835 32.138-2.565 10.336-5.138 20.775-5.918 31.396-.908 12.363.016 28.53.467 42.785.466 14.96.249 31.444 2.372 46.98 2.315 16.92 6.81 37.459 11.498 54.543 4.479 16.316 10.59 32.451 16.62 47.958 5.942 15.27 13.396 31.355 19.579 45.085 5.637 12.525 12.439 24.538 17.529 37.297 5.636 14.11 12.591 34.126 16.25 47.368 2.903 10.47 5.025 21.244 5.74 32.084.78 11.773-.04 33.267-1.068 38.555-.314 1.603-2.927 2.072-4.174-.097-.924-1.608-.498-5.605-.94-6.733-1.93-4.934-2.734-15.819-6.465-22.77-3.78-7.045-13.87-19.515-16.234-19.495-2.356.021 1.126 13.376 2.082 19.62.917 6 1.48 12.172 3.65 17.84 3.466 9.043 11 24.488 17.144 36.415 6.979 13.542 18.38 28.993 24.709 44.84 6.93 17.352 13.773 42.487 16.877 59.268 2.517 13.589 2.726 34.173 1.769 41.417-.346 2.581-6.015 4.15-7.526 2.035-2.34-3.265-2.887-15.028-6.521-21.622-3.836-6.963-14.739-20.27-16.516-20.174-1.777.105 3.128 14.128 5.854 20.793 4.752 11.651 5.604 28.93 2.324 43.476" fill="none" stroke="#4247ff" stroke-width="2.0825413"/><path d="M879.65 411.26c-.767-4.751-2.279-18.629-1.04-27.194 1.223-8.46 4.267-17.925 8.47-24.204 3.985-5.955 10.153-10.182 16.747-13.477 2.634-1.315 8.09-5.013 10.406-7.38 3.802-3.888 5.97-7.652 8.153-9.693 1.365-1.276 3.46-3.716 4.59-3.221 1.129.495 2.29 4.005 2.184 6.19-.202 4.181-2.362 14.168-3.402 18.894-.707 3.216-.914 6.788-2.836 9.462-2.94 4.09-10.485 10.748-14.808 15.076-3.668 3.672-8.043 7.2-11.127 10.893-2.876 3.444-5.27 7.299-7.375 11.263-2.296 4.326-4.746 12.463-6.407 14.695-.754 1.013-3.355-.058-3.556-1.305z" fill="none" stroke="#4247ff" stroke-width="2.0825413"/></g><g><text x="800.72" y="885.161" font-family="'Raleway-ThinItalic_Black-Italic','Raleway'" font-weight="100" font-style="italic" font-size="157.082" fill="#5c4e27" transform="translate(-13.116 13.532)">FRHD</text></g></svg>